<?xml version="1.0" encoding="utf-8"?>
<!-- Generator: Adobe Illustrator 18.1.1, SVG Export Plug-In . SVG Version: 6.00 Build 0)  -->
<svg version="1.1" id="Layer_1" xmlns="http://www.w3.org/2000/svg" xmlns:xlink="http://www.w3.org/1999/xlink" x="0px" y="0px"
	 viewBox="0 0 192 74" enable-background="new 0 0 192 74" xml:space="preserve">
<g>
	<g>
		<path fill="#FFFFFF" d="M24.9,24.1C12.8,24.1,3.1,33.9,3.1,46c0,12.1,9.8,21.9,21.9,21.9c12.1,0,21.9-9.8,21.9-21.9
			C46.8,33.9,37,24.1,24.9,24.1z M34.9,57.9c-0.4,0-0.8-0.2-1-0.6l-7.8-15.8l-4.8,9.7h3.2l-0.4-0.9c-0.1-0.1,0-0.3,0-0.4
			c0.1-0.2,0.3-0.2,0.5-0.2l3.9,1.6c0.2,0.1,0.3,0.3,0.3,0.5c0,0.2-0.1,0.4-0.3,0.5L24.7,54c-0.2,0.1-0.4,0-0.5-0.2
			c-0.1-0.1-0.1-0.3,0-0.4l0.4-0.9h-3.9l-2.4,4.8c-0.2,0.4-0.6,0.6-1,0.6c-0.2,0-0.7-0.2-0.7-0.2l0.4-0.8l2.2-4.4h-6.6
			c-0.2,0-0.5-0.1-0.6-0.3c-0.1-0.2-0.1-0.4,0-0.7l7.5-15.2l0.1,0.1c0.5,0.2,0.7,0.7,0.7,1.3c0,0.1-0.1,0.3-0.1,0.3l-6.5,13.2h6.1
			l5.7-11.6c0.1-0.2,0.3-0.3,0.6-0.3c0.3,0,0.5,0.1,0.6,0.3l8.9,18.1C35.6,57.7,35.1,57.9,34.9,57.9z M36.1,52.5
			c-0.4,0-0.8-0.2-1-0.6l-9-18.3l-7.8,15.8c-0.2,0.4-0.6,0.6-1,0.6c-0.2,0-0.7-0.2-0.7-0.2l0.4-0.8l8.5-17.3
			c0.1-0.2,0.3-0.3,0.6-0.3c0.3,0,0.5,0.1,0.6,0.3l10.1,20.5C36.8,52.3,36.3,52.5,36.1,52.5z"/>
		<g>
			<g>
				<path fill="#FFFFFF" d="M64.6,29.6c-0.6,0-1.1,0.4-1.3,0.9l-5.6,14.7h0.9c0.6,0,1.2-0.4,1.4-1l1.2-3.3h6.6l1.3,3.4
					c0.2,0.6,0.8,1,1.4,1h1l-5.6-14.7C65.7,30,65.2,29.6,64.6,29.6z M61.9,39.2l2.4-6.6c0.1-0.3,0.2-0.6,0.2-1h0
					c0.1,0.5,0.2,0.8,0.2,1l2.4,6.6H61.9z"/>
				<path fill="#FFFFFF" d="M129.9,30.1l-3.4,6.5c-0.2,0.4-0.3,0.7-0.4,1h0c-0.2-0.5-0.3-0.9-0.4-1l-3.2-6.5
					c-0.2-0.3-0.5-0.5-0.8-0.5h-1.5l4.9,9.7c0.1,0.1,0.1,0.3,0.1,0.4v4.6c0,0.5,0.4,0.9,0.9,0.9c0.5,0,0.9-0.4,0.9-0.9v-4.6
					c0-0.1,0-0.3,0.1-0.4l5-9.6h-1.4C130.4,29.6,130.1,29.8,129.9,30.1z"/>
				<path fill="#FFFFFF" d="M154.5,30.5l-2.9,11.1c-0.2,0.6-0.3,1.1-0.3,1.5h0c-0.1-0.6-0.1-1-0.3-1.5l-3.1-11.2
					c-0.1-0.5-0.6-0.8-1.1-0.8c-0.5,0-1,0.3-1.1,0.8l-3.2,11.1c-0.2,0.7-0.3,1.2-0.3,1.6h-0.1c0-0.5-0.1-1.1-0.3-1.6l-3.1-11.1
					c-0.1-0.5-0.6-0.8-1.1-0.8h-1.1l4.3,14.7c0.1,0.5,0.6,0.8,1.1,0.8h0.4c0.5,0,1-0.3,1.1-0.8l3-10.5c0.1-0.5,0.2-1,0.3-1.6h0
					c0,0.6,0.1,1.1,0.2,1.6l3,10.5c0.1,0.5,0.6,0.8,1.1,0.8h0.4c0.5,0,1-0.3,1.1-0.8l4.2-14.7h-1.1C155.1,29.6,154.6,30,154.5,30.5z
					"/>
				<path fill="#FFFFFF" d="M167.3,29.6c-0.6,0-1.1,0.4-1.3,0.9l-5.6,14.7h1c0.6,0,1.1-0.4,1.3-0.9l1.2-3.4h6.6l1.3,3.4
					c0.2,0.6,0.7,0.9,1.3,0.9h1l-5.6-14.7C168.4,30,167.9,29.6,167.3,29.6z M164.6,39.2l2.4-6.6c0.1-0.3,0.2-0.6,0.2-1h0
					c0.1,0.5,0.2,0.8,0.2,1l2.4,6.6H164.6z"/>
				<path fill="#FFFFFF" d="M187.6,29.6c-0.3,0-0.7,0.2-0.8,0.5l-3.4,6.5c-0.2,0.4-0.3,0.7-0.4,1h0c-0.2-0.5-0.3-0.9-0.4-1l-3.2-6.5
					c-0.2-0.3-0.5-0.5-0.8-0.5H177l4.9,9.7c0.1,0.1,0.1,0.3,0.1,0.4v4.6c0,0.5,0.4,0.9,0.9,0.9c0.5,0,0.9-0.4,0.9-0.9v-4.6
					c0-0.1,0-0.3,0.1-0.4l5-9.6H187.6z"/>
				<path fill="#FFFFFF" d="M99.6,43.5h-0.4v0h-5v-13c0-0.5-0.4-0.9-0.9-0.9c-0.5,0-0.9,0.4-0.9,0.9v14.6h6.8v0h0.4
					c0.4,0,0.8-0.4,0.8-0.8S100,43.5,99.6,43.5z"/>
				<path fill="#FFFFFF" d="M114.8,43.6h-6.3v-5.6h5.6c0.3,0,0.5-0.1,0.6-0.2c0.1-0.2,0.2-0.3,0.2-0.5c0-0.2-0.1-0.4-0.2-0.5
					c-0.1-0.2-0.3-0.2-0.6-0.2h-5.6v-5.2h5.9c0.3,0,0.5-0.1,0.6-0.2c0.1-0.2,0.2-0.3,0.2-0.6c0-0.2-0.1-0.4-0.2-0.5
					c-0.1-0.1-0.3-0.2-0.5-0.2l0,0h-0.1c0,0,0,0,0,0h-6.9l0,0h-0.9v0.9v13.7v0.9h1h7.1h0.2l-0.1,0c0.2,0,0.4-0.1,0.5-0.2
					c0.1-0.2,0.2-0.3,0.2-0.6c0-0.2-0.1-0.4-0.2-0.5C115.3,43.7,115.1,43.6,114.8,43.6z"/>
				<path fill="#FFFFFF" d="M85.1,43.5h-0.4v0h-5v-13c0-0.5-0.4-0.9-0.9-0.9c-0.5,0-0.9,0.4-0.9,0.9v14.6h6.8v0h0.4
					c0.4,0,0.8-0.4,0.8-0.8S85.6,43.5,85.1,43.5z"/>
			</g>
			<g>
				<path fill="#FFFFFF" d="M66.4,60.5C65.6,60.8,64.8,61,64,61c-1.3,0-2.3-0.4-3.1-1.3c-0.8-0.9-1.2-2-1.2-3.4
					c0-1.5,0.4-2.7,1.3-3.6c0.9-0.9,2-1.4,3.3-1.4c0.7,0,1.4,0.1,2.1,0.3v0.7c-0.7-0.3-1.3-0.4-2.1-0.4c-1.2,0-2.1,0.4-2.9,1.2
					s-1.1,1.9-1.1,3.2c0,1.3,0.4,2.3,1.1,3c0.7,0.7,1.6,1.1,2.7,1.1c0.9,0,1.6-0.2,2.3-0.5V60.5z"/>
				<path fill="#FFFFFF" d="M73.7,61c-1.3,0-2.4-0.4-3.2-1.3c-0.8-0.9-1.2-2-1.2-3.4c0-1.5,0.4-2.7,1.2-3.6c0.8-0.9,1.9-1.3,3.3-1.3
					c1.3,0,2.3,0.4,3.1,1.3c0.8,0.9,1.2,2,1.2,3.4c0,1.5-0.4,2.8-1.2,3.6C76.1,60.5,75,61,73.7,61z M73.7,51.9c-1.1,0-2,0.4-2.7,1.2
					c-0.7,0.8-1.1,1.8-1.1,3.1c0,1.3,0.3,2.3,1,3.1c0.7,0.8,1.5,1.1,2.7,1.1c1.2,0,2.1-0.4,2.7-1.1s1-1.8,1-3.1c0-1.3-0.3-2.3-1-3.1
					C75.8,52.3,74.9,51.9,73.7,51.9z"/>
				<path fill="#FFFFFF" d="M88.3,60.8l-5.6-7.5c-0.1-0.2-0.2-0.3-0.3-0.5l-0.1-0.1h0c0,0.1,0,0.2,0,0.4v7.7h-0.6v-9.3h0.5l5.5,7.5
					c0.1,0.2,0.3,0.4,0.4,0.6h0c0-0.3,0-0.6,0-0.8v-7.3h0.6v9.3H88.3z"/>
				<path fill="#FFFFFF" d="M92.5,60.5v-0.7c0.7,0.4,1.3,0.6,2,0.6c0.7,0,1.3-0.2,1.7-0.5c0.4-0.3,0.6-0.7,0.6-1.3
					c0-0.5-0.1-0.9-0.4-1.1c-0.3-0.3-0.8-0.7-1.6-1.2c-0.9-0.6-1.5-1-1.8-1.4c-0.3-0.4-0.4-0.8-0.4-1.3c0-0.7,0.3-1.2,0.8-1.7
					c0.5-0.5,1.2-0.7,2-0.7c0.6,0,1.1,0.1,1.7,0.3v0.7c-0.5-0.2-1.1-0.4-1.8-0.4c-0.6,0-1.1,0.2-1.5,0.5c-0.4,0.3-0.6,0.7-0.6,1.2
					c0,0.5,0.1,0.9,0.4,1.1c0.3,0.3,0.8,0.7,1.6,1.2c0.9,0.5,1.5,0.9,1.7,1.3c0.3,0.4,0.4,0.8,0.4,1.3c0,0.7-0.2,1.3-0.7,1.8
					c-0.5,0.5-1.2,0.7-2.1,0.7c-0.3,0-0.7-0.1-1.1-0.1C93,60.7,92.7,60.6,92.5,60.5z"/>
				<path fill="#FFFFFF" d="M107.4,57.1c0,2.6-1.1,3.9-3.3,3.9c-2.1,0-3.2-1.2-3.2-3.7v-5.7h0.6v5.7c0,2.2,0.9,3.2,2.6,3.2
					c1.7,0,2.6-1.1,2.6-3.2v-5.7h0.6V57.1z"/>
				<path fill="#FFFFFF" d="M111.4,60.8v-9.3h0.6v8.7h3.7v0.6H111.4z"/>
				<path fill="#FFFFFF" d="M120.5,52.1v8.7h-0.6v-8.7h-2.7v-0.6h6v0.6H120.5z"/>
				<path fill="#FFFFFF" d="M127.1,51.5v9.3h-0.6v-9.3H127.1z"/>
				<path fill="#FFFFFF" d="M137.8,60.8l-5.6-7.5c-0.1-0.2-0.2-0.3-0.3-0.5l-0.1-0.1h0c0,0.1,0,0.2,0,0.4v7.7h-0.6v-9.3h0.5l5.5,7.5
					c0.1,0.2,0.3,0.4,0.4,0.6h0c0-0.3,0-0.6,0-0.8v-7.3h0.6v9.3H137.8z"/>
				<path fill="#FFFFFF" d="M149.1,60.1c-1,0.5-2,0.8-3,0.8c-1.3,0-2.3-0.4-3.1-1.3c-0.8-0.9-1.2-2-1.2-3.4c0-1.4,0.4-2.6,1.3-3.5
					c0.8-0.9,2-1.4,3.4-1.4c0.8,0,1.6,0.2,2.4,0.5v0.7c-0.8-0.4-1.7-0.6-2.5-0.6c-1.2,0-2.1,0.4-2.8,1.2c-0.7,0.8-1.1,1.8-1.1,3.1
					c0,1.3,0.3,2.3,1,3.1c0.7,0.7,1.6,1.1,2.7,1.1c0.8,0,1.6-0.2,2.2-0.5v-3.1h-2.2v-0.6h2.8V60.1z"/>
				<path fill="#FFFFFF" d="M152.5,62.4H152l1-3.1h0.7L152.5,62.4z"/>
				<path fill="#FFFFFF" d="M162.8,60.8v-9.3h0.6v8.7h3.7v0.6H162.8z"/>
				<path fill="#FFFFFF" d="M170.6,60.8v-9.3h0.6v8.7h3.7v0.6H170.6z"/>
				<path fill="#FFFFFF" d="M183.9,60.5c-0.8,0.3-1.5,0.5-2.4,0.5c-1.3,0-2.3-0.4-3.1-1.3c-0.8-0.9-1.2-2-1.2-3.4
					c0-1.5,0.4-2.7,1.3-3.6c0.9-0.9,2-1.4,3.3-1.4c0.7,0,1.4,0.1,2.1,0.3v0.7c-0.7-0.3-1.3-0.4-2.1-0.4c-1.2,0-2.1,0.4-2.9,1.2
					c-0.7,0.8-1.1,1.9-1.1,3.2c0,1.3,0.3,2.3,1.1,3c0.7,0.7,1.6,1.1,2.7,1.1c0.9,0,1.6-0.2,2.3-0.5V60.5z"/>
			</g>
		</g>
	</g>
	<g>
		<path fill="#FFFFFF" d="M9.5,14.6H8.1v-4c0-0.5-0.1-0.9-0.3-1.1C7.6,9.3,7.4,9.2,7,9.2C6.4,9.2,6,9.3,5.8,9.7s-0.4,0.9-0.4,1.7
			v3.2H4V8.1h1.1L5.3,9h0.1c0.2-0.3,0.4-0.5,0.8-0.7S6.9,8,7.3,8c1,0,1.7,0.3,2,1h0.1c0.2-0.3,0.5-0.6,0.8-0.8S10.9,8,11.4,8
			c0.8,0,1.3,0.2,1.7,0.6s0.5,1,0.5,1.8v4.2h-1.4v-4c0-0.5-0.1-0.9-0.3-1.1S11.4,9.2,11,9.2c-0.5,0-0.9,0.2-1.2,0.5
			s-0.4,0.8-0.4,1.5V14.6z"/>
		<path fill="#FFFFFF" d="M19.6,14.6l-0.3-0.9h0c-0.3,0.4-0.6,0.7-0.9,0.8s-0.7,0.2-1.2,0.2c-0.6,0-1.1-0.2-1.5-0.5
			s-0.5-0.8-0.5-1.5c0-0.7,0.2-1.2,0.7-1.5c0.5-0.3,1.3-0.5,2.3-0.6l1.1,0v-0.3c0-0.4-0.1-0.7-0.3-0.9S18.4,9.1,18,9.1
			c-0.3,0-0.7,0-1,0.1s-0.6,0.2-0.9,0.3l-0.4-1c0.4-0.2,0.7-0.3,1.2-0.4S17.7,8,18.1,8c0.8,0,1.4,0.2,1.9,0.5s0.6,0.9,0.6,1.7v4.4
			H19.6z M17.5,13.7c0.5,0,0.9-0.1,1.2-0.4s0.5-0.7,0.5-1.2v-0.6l-0.8,0c-0.6,0-1.1,0.1-1.4,0.3s-0.4,0.5-0.4,0.9
			c0,0.3,0.1,0.5,0.3,0.7S17.2,13.7,17.5,13.7z"/>
		<path fill="#FFFFFF" d="M24.7,14.7c-0.8,0-1.4-0.3-1.9-0.9s-0.7-1.4-0.7-2.5c0-1.1,0.2-1.9,0.7-2.5S23.9,8,24.7,8
			c0.9,0,1.5,0.3,1.9,0.9h0.1c-0.1-0.5-0.1-0.8-0.1-1.1V5.5H28v9.1h-1.1l-0.2-0.8h-0.1C26.2,14.4,25.5,14.7,24.7,14.7z M25,13.6
			c0.6,0,1-0.2,1.2-0.5s0.4-0.8,0.4-1.5v-0.2c0-0.8-0.1-1.4-0.4-1.7S25.6,9.2,25,9.2c-0.5,0-0.9,0.2-1.1,0.6s-0.4,1-0.4,1.7
			c0,0.7,0.1,1.3,0.4,1.6S24.5,13.6,25,13.6z"/>
		<path fill="#FFFFFF" d="M32.8,14.7c-1,0-1.8-0.3-2.4-0.9s-0.9-1.4-0.9-2.4c0-1.1,0.3-1.9,0.8-2.5S31.6,8,32.5,8
			c0.9,0,1.5,0.3,2,0.8s0.7,1.2,0.7,2.1v0.7H31c0,0.6,0.2,1.1,0.5,1.5s0.8,0.5,1.4,0.5c0.4,0,0.7,0,1.1-0.1s0.7-0.2,1.1-0.4v1.1
			c-0.3,0.2-0.7,0.3-1,0.3S33.2,14.7,32.8,14.7z M32.5,9.1c-0.4,0-0.8,0.1-1.1,0.4s-0.4,0.7-0.5,1.2h2.9c0-0.5-0.1-0.9-0.4-1.2
			S33,9.1,32.5,9.1z"/>
		<path fill="#FFFFFF" d="M43.3,8c0.8,0,1.4,0.3,1.9,0.9s0.7,1.4,0.7,2.5c0,1.1-0.2,1.9-0.7,2.5s-1.1,0.9-1.9,0.9
			c-0.8,0-1.5-0.3-1.9-0.9h-0.1L41,14.6h-1V5.5h1.4v2.2c0,0.2,0,0.4,0,0.7s0,0.5,0,0.6h0.1C41.8,8.3,42.4,8,43.3,8z M42.9,9.2
			c-0.6,0-1,0.2-1.2,0.5s-0.4,0.9-0.4,1.6v0.1c0,0.8,0.1,1.4,0.4,1.7s0.7,0.5,1.2,0.5c0.5,0,0.9-0.2,1.1-0.6s0.4-0.9,0.4-1.7
			C44.4,9.9,43.9,9.2,42.9,9.2z"/>
		<path fill="#FFFFFF" d="M46.5,8.1H48l1.3,3.7c0.2,0.5,0.3,1,0.4,1.5h0c0-0.2,0.1-0.5,0.2-0.8s0.6-1.8,1.5-4.4h1.5l-2.8,7.3
			c-0.5,1.3-1.3,2-2.5,2c-0.3,0-0.6,0-0.9-0.1v-1.1c0.2,0,0.4,0.1,0.7,0.1c0.7,0,1.1-0.4,1.4-1.2l0.2-0.6L46.5,8.1z"/>
	</g>
</g>
</svg>
