<?xml version="1.0" encoding="utf-8"?>
<!-- Generator: Adobe Illustrator 18.1.1, SVG Export Plug-In . SVG Version: 6.00 Build 0)  -->
<svg version="1.1" id="Layer_1" xmlns="http://www.w3.org/2000/svg" xmlns:xlink="http://www.w3.org/1999/xlink" x="0px" y="0px"
	 width="192px" height="74px" viewBox="0 0 192 74" enable-background="new 0 0 192 74" xml:space="preserve">
<g>
	<g>
		<g>
			<path fill="#FFFFFF" d="M6.8,12.7H5.4V8.6c0-0.5-0.1-0.9-0.3-1.1S4.7,7.2,4.2,7.2c-0.6,0-1,0.1-1.2,0.5S2.6,8.6,2.6,9.5v3.3H1.1
				V6.1h1.1L2.5,7h0.1C2.8,6.7,3,6.5,3.4,6.3C3.8,6.1,4.1,6,4.5,6c1,0,1.8,0.3,2,1h0.1c0.2-0.3,0.5-0.6,0.8-0.8S8.2,6,8.7,6
				c0.8,0,1.4,0.2,1.8,0.6C10.9,7,11,7.6,11,8.4v4.3H9.5V8.6c0-0.5-0.1-0.9-0.3-1.1S8.7,7.2,8.3,7.2c-0.5,0-0.9,0.2-1.2,0.5
				C6.8,8,6.7,8.6,6.7,9.3v3.5L6.8,12.7L6.8,12.7z"/>
			<path fill="#FFFFFF" d="M17.2,12.7l-0.3-0.9l0,0c-0.3,0.4-0.6,0.7-0.9,0.8c-0.3,0.1-0.7,0.2-1.2,0.2c-0.6,0-1.1-0.2-1.5-0.5
				c-0.4-0.3-0.5-0.8-0.5-1.5s0.2-1.2,0.7-1.5c0.5-0.3,1.4-0.5,2.4-0.6h1.1V8.3c0-0.4-0.1-0.7-0.3-0.9c-0.2-0.2-0.6-0.3-1-0.3
				c-0.3,0-0.7,0-1,0.1s-0.6,0.2-0.9,0.3l-0.4-1c0.4-0.2,0.7-0.3,1.2-0.4s0.8-0.1,1.2-0.1c0.8,0,1.5,0.2,2,0.5s0.6,0.9,0.6,1.8v4.5
				L17.2,12.7L17.2,12.7z M15.1,11.8c0.5,0,0.9-0.1,1.3-0.4c0.3-0.3,0.5-0.7,0.5-1.2V9.6H16c-0.6,0-1.1,0.1-1.4,0.3
				s-0.4,0.5-0.4,0.9c0,0.3,0.1,0.5,0.3,0.7C14.6,11.7,14.8,11.8,15.1,11.8z"/>
			<path fill="#FFFFFF" d="M22.5,12.8c-0.8,0-1.5-0.3-2-0.9c-0.5-0.6-0.7-1.5-0.7-2.6s0.2-2,0.7-2.6c0.5-0.6,1.1-0.8,2-0.8
				c0.9,0,1.5,0.3,2,0.9h0.1c-0.1-0.5-0.1-0.8-0.1-1.1V3.4h1.5v9.4h-1.1l-0.2-0.8h-0.1C24,12.5,23.3,12.8,22.5,12.8z M22.8,11.7
				c0.6,0,1-0.2,1.2-0.5c0.2-0.3,0.4-0.8,0.4-1.5V9.4c0-0.8-0.1-1.5-0.4-1.8s-0.6-0.5-1.2-0.5c-0.5,0-0.9,0.2-1.1,0.6
				c-0.2,0.4-0.4,1-0.4,1.8s0.1,1.3,0.4,1.7C22,11.5,22.3,11.7,22.8,11.7z"/>
			<path fill="#FFFFFF" d="M30.8,12.8c-1,0-1.9-0.3-2.5-0.9s-0.9-1.5-0.9-2.5c0-1.1,0.3-2,0.8-2.6s1.4-0.9,2.3-0.9s1.5,0.3,2,0.8
				s0.7,1.2,0.7,2.2v0.7H29c0,0.6,0.2,1.1,0.5,1.5c0.3,0.4,0.8,0.5,1.5,0.5c0.4,0,0.7,0,1.1-0.1s0.7-0.2,1.1-0.4v1.1
				c-0.3,0.2-0.7,0.3-1,0.3C31.9,12.6,31.2,12.8,30.8,12.8z M30.5,7.1c-0.4,0-0.8,0.1-1.1,0.4S29,8.2,28.9,8.7h3
				c0-0.5-0.1-0.9-0.4-1.2S31,7.1,30.5,7.1z"/>
			<path fill="#FFFFFF" d="M41.7,5.9c0.8,0,1.5,0.3,2,0.9c0.5,0.6,0.7,1.5,0.7,2.6s-0.2,2-0.7,2.6c-0.5,0.6-1.1,0.9-2,0.9
				s-1.5-0.3-2-0.9h-0.1l-0.3,0.7h-1.1V3.4h1.5v2.3c0,0.2,0,0.4,0,0.7s0,0.5,0,0.6h0.1C40.1,6.2,40.7,5.9,41.7,5.9z M41.3,7.2
				c-0.6,0-1,0.2-1.2,0.5c-0.2,0.3-0.4,0.9-0.4,1.7v0.1c0,0.8,0.1,1.5,0.4,1.8c0.3,0.3,0.7,0.5,1.2,0.5s0.9-0.2,1.1-0.6
				s0.4-0.9,0.4-1.8C42.8,7.9,42.3,7.2,41.3,7.2z"/>
			<path fill="#FFFFFF" d="M45,6h1.5l1.3,3.8c0.2,0.5,0.3,1,0.4,1.5l0,0c0-0.2,0.1-0.5,0.2-0.8s0.6-1.8,1.5-4.5h1.5l-2.9,7.5
				c-0.5,1.3-1.3,2-2.6,2c-0.3,0-0.6,0-0.9-0.1v-1.1c0.2,0,0.4,0.1,0.7,0.1c0.7,0,1.1-0.4,1.5-1.2l0.2-0.6L45,6z"/>
		</g>
	</g>
	<g>
		<g>
			<g>
				<g>
					<path fill="#FFFFFF" d="M70.8,28.1c-0.6,0-1.1,0.3-1.2,0.8l-5.5,14.3H65c0.6,0,1.2-0.4,1.4-1l1.2-3.2H74l1.2,3.3
						c0.2,0.6,0.8,1,1.4,1h0.9L72.1,29C71.9,28.5,71.4,28.1,70.8,28.1z M68.2,37.4l2.3-6.4c0.1-0.2,0.2-0.6,0.2-1h0.1
						c0.1,0.5,0.2,0.8,0.2,1l2.4,6.4H68.2z"/>
				</g>
				<g>
					<path fill="#FFFFFF" d="M134.3,28.6l-3.3,6.4c-0.2,0.4-0.3,0.7-0.4,0.9h0c-0.2-0.5-0.3-0.8-0.4-0.9l-3.1-6.4
						c-0.1-0.3-0.4-0.5-0.8-0.5h-1.5l4.8,9.4c0.1,0.1,0.1,0.2,0.1,0.4v4.4c0,0.5,0.4,0.9,0.9,0.9c0.5,0,0.9-0.4,0.9-0.9v-4.5
						c0-0.2,0-0.3,0.1-0.4l4.9-9.4h-1.4C134.8,28.1,134.5,28.3,134.3,28.6z"/>
				</g>
				<g>
					<path fill="#FFFFFF" d="M158.3,28.9l-2.9,10.8c-0.1,0.6-0.2,1.1-0.3,1.4h-0.1c-0.1-0.6-0.1-1-0.2-1.4l-3-10.9
						c-0.1-0.5-0.6-0.8-1.1-0.8s-0.9,0.3-1.1,0.8l-3.1,10.8c-0.2,0.7-0.3,1.2-0.3,1.5h-0.1c0-0.5-0.1-1-0.2-1.5l-3-10.8
						c-0.1-0.5-0.6-0.8-1.1-0.8h-1.1l4.2,14.3c0.1,0.5,0.6,0.8,1.1,0.8h0.4c0.5,0,0.9-0.3,1.1-0.8l2.9-10.3c0.1-0.5,0.2-1,0.3-1.5
						h0.1c0,0.6,0.1,1.1,0.2,1.6l2.9,10.2c0.1,0.5,0.6,0.8,1.1,0.8h0.4c0.5,0,0.9-0.3,1.1-0.8l4.1-14.3h-1.1
						C158.9,28.1,158.4,28.5,158.3,28.9z"/>
				</g>
				<g>
					<path fill="#FFFFFF" d="M170.8,28.1c-0.6,0-1.1,0.3-1.2,0.8L164,43.2h1c0.6,0,1.1-0.4,1.3-0.9l1.2-3.3h6.4l1.3,3.3
						c0.2,0.5,0.7,0.9,1.3,0.9h1L172,29C171.8,28.5,171.3,28.1,170.8,28.1z M168.1,37.4l2.4-6.4c0.1-0.2,0.2-0.6,0.2-1h0.1
						c0.1,0.5,0.1,0.8,0.2,1l2.4,6.4H168.1z"/>
				</g>
				<g>
					<path fill="#FFFFFF" d="M190.5,28.1c-0.3,0-0.6,0.2-0.8,0.5l-3.3,6.4c-0.2,0.4-0.3,0.7-0.4,0.9h0c-0.2-0.5-0.3-0.8-0.4-0.9
						l-3.1-6.4c-0.1-0.3-0.4-0.5-0.8-0.5h-1.5l4.8,9.4c0.1,0.1,0.1,0.2,0.1,0.4v4.4c0,0.5,0.4,0.9,0.9,0.9c0.5,0,0.9-0.4,0.9-0.9
						v-4.5c0-0.2,0-0.3,0.1-0.4l4.9-9.4L190.5,28.1L190.5,28.1z"/>
				</g>
				<g>
					<path fill="#FFFFFF" d="M104.8,41.7h-0.4v0h-4.8V29c0-0.5-0.4-0.9-0.9-0.9c-0.5,0-0.9,0.4-0.9,0.9v14.3h6.6l0,0h0.4
						c0.4,0,0.8-0.3,0.8-0.8S105.2,41.7,104.8,41.7z"/>
				</g>
				<g>
					<path fill="#FFFFFF" d="M119.7,41.7h-6.1v-5.5h5.4c0.2,0,0.4-0.1,0.6-0.2c0.1-0.2,0.2-0.3,0.2-0.5c0-0.2-0.1-0.4-0.2-0.5
						s-0.3-0.2-0.6-0.2h-5.4v-5.1h5.8c0.2,0,0.4-0.1,0.6-0.2c0.1-0.2,0.2-0.3,0.2-0.5c0-0.2-0.1-0.4-0.2-0.5s-0.3-0.2-0.5-0.2h0.1
						h-0.1l0,0h-6.7l0,0h-0.9V29v13.4v0.9h0.9h6.9h0.2l-0.1,0c0.2,0,0.4-0.1,0.5-0.2c0.1-0.2,0.2-0.3,0.2-0.5c0-0.2-0.1-0.4-0.2-0.5
						C120.1,41.8,119.9,41.7,119.7,41.7z"/>
				</g>
				<g>
					<path fill="#FFFFFF" d="M90.7,41.7h-0.4v0h-4.8V29c0-0.5-0.4-0.9-0.9-0.9c-0.5,0-0.9,0.4-0.9,0.9v14.3h6.6l0,0h0.4
						c0.4,0,0.8-0.3,0.8-0.8S91.2,41.7,90.7,41.7z"/>
				</g>
			</g>
			<g>
				<path fill="#FFFFFF" d="M70.5,48.9c-1.4,0-2.6,0.5-3.4,1.4c-0.9,0.9-1.3,2.2-1.3,3.8c0,1.4,0.4,2.6,1.2,3.5s1.9,1.3,3.2,1.3
					c0.8,0,1.7-0.2,2.4-0.5l0.2-0.1v-1.3l-0.4,0.2c-0.6,0.3-1.3,0.4-2.1,0.4c-1,0-1.8-0.3-2.4-1s-0.9-1.6-0.9-2.7
					c0-1.2,0.3-2.2,1-2.9c0.7-0.7,1.5-1.1,2.6-1.1c0.7,0,1.3,0.1,1.9,0.4l0.4,0.2v-1.3l-0.2-0.1C71.9,49.1,71.2,48.9,70.5,48.9z"/>
				<path fill="#FFFFFF" d="M79.8,48.9c-1.4,0-2.6,0.5-3.4,1.4c-0.8,0.9-1.2,2.2-1.2,3.7c0,1.4,0.4,2.6,1.2,3.5
					c0.8,0.9,1.9,1.4,3.3,1.4s2.5-0.5,3.3-1.4s1.2-2.2,1.2-3.8c0-1.4-0.4-2.6-1.2-3.5C82.2,49.4,81.1,48.9,79.8,48.9z M76.3,54
					c0-1.2,0.3-2.1,0.9-2.8c0.6-0.7,1.4-1.1,2.4-1.1c1,0,1.8,0.3,2.4,1c0.6,0.7,0.9,1.6,0.9,2.8c0,1.2-0.3,2.2-0.9,2.9s-1.4,1-2.4,1
					c-1,0-1.8-0.3-2.3-1C76.6,56.1,76.3,55.1,76.3,54z"/>
				<polygon fill="#FFFFFF" points="93.3,56.3 88,49.1 87.1,49.1 87.1,58.8 88.3,58.8 88.3,51.5 93.6,58.8 94.5,58.8 94.5,49.1 
					93.3,49.1 				"/>
				<path fill="#FFFFFF" d="M100.7,53.4c-1-0.6-1.4-0.9-1.5-1.1c-0.2-0.2-0.3-0.5-0.3-0.9c0-0.4,0.2-0.7,0.4-1
					c0.3-0.3,0.7-0.4,1.3-0.4s1.1,0.1,1.6,0.3l0.4,0.2v-1.3l-0.2-0.1c-0.6-0.2-1.2-0.3-1.7-0.3c-0.9,0-1.7,0.2-2.2,0.8
					c-0.6,0.5-0.8,1.1-0.8,1.8c0,0.5,0.2,1,0.4,1.4c0.3,0.4,0.9,0.9,1.8,1.4c1,0.6,1.4,0.9,1.5,1.1c0.2,0.2,0.3,0.5,0.3,0.9
					c0,0.4-0.2,0.8-0.4,1c-0.3,0.2-0.8,0.4-1.4,0.4c-0.6,0-1.2-0.2-1.8-0.6l-0.4-0.3v1.4l0.2,0.1c0.2,0.2,0.6,0.3,1,0.4
					c0.4,0.1,0.8,0.2,1.2,0.2c0.9,0,1.7-0.2,2.2-0.7c0.6-0.5,0.8-1.2,0.8-1.9c0-0.6-0.2-1.1-0.5-1.5C102.2,54.4,101.6,54,100.7,53.4
					z"/>
				<path fill="#FFFFFF" d="M111.5,55c0,1.9-0.7,2.8-2.2,2.8c-1.6,0-2.3-0.9-2.3-2.9v-5.8h-1.2V55c0,3.2,1.8,3.9,3.4,3.9
					c1.6,0,3.5-0.7,3.5-4.1v-5.8h-1.2L111.5,55L111.5,55z"/>
				<polygon fill="#FFFFFF" points="117.2,49.1 116,49.1 116,58.8 120.8,58.8 120.8,57.6 117.2,57.6 				"/>
				<polygon fill="#FFFFFF" points="121.7,50.3 124.3,50.3 124.3,58.8 125.5,58.8 125.5,50.3 128.1,50.3 128.1,49.1 121.7,49.1 				
					"/>
				<rect x="130.7" y="49.1" fill="#FFFFFF" width="1.2" height="9.7"/>
				<polygon fill="#FFFFFF" points="141.5,56.3 136.2,49.1 135.3,49.1 135.3,58.8 136.5,58.8 136.5,51.5 141.9,58.8 142.8,58.8 
					142.8,49.1 141.5,49.1 				"/>
				<path fill="#FFFFFF" d="M149.9,54.8h2.1v2.5c-0.5,0.3-1.1,0.4-1.9,0.4c-1,0-1.8-0.3-2.4-1s-0.9-1.6-0.9-2.8c0-1.1,0.3-2.1,1-2.8
					c0.6-0.7,1.5-1.1,2.6-1.1c0.7,0,1.5,0.2,2.3,0.6l0.4,0.2v-1.3l-0.2-0.1c-0.8-0.3-1.6-0.5-2.4-0.5c-1.4,0-2.6,0.5-3.5,1.5
					s-1.3,2.2-1.3,3.7c0,1.4,0.4,2.6,1.2,3.5c0.8,0.9,1.9,1.3,3.2,1.3c1.1,0,2.1-0.3,3.1-0.8l0.1-0.1v-4.3H150L149.9,54.8
					L149.9,54.8z"/>
				<polygon fill="#FFFFFF" points="155.4,60.3 156.5,60.3 157.8,56.7 156.6,56.7 				"/>
				<polygon fill="#FFFFFF" points="167.3,49.1 166.1,49.1 166.1,58.8 170.9,58.8 170.9,57.6 167.3,57.6 				"/>
				<polygon fill="#FFFFFF" points="174.9,49.1 173.6,49.1 173.6,58.8 178.5,58.8 178.5,57.6 174.9,57.6 				"/>
				<path fill="#FFFFFF" d="M184.9,50.1c0.6,0,1.3,0.1,1.9,0.4l0.4,0.2v-1.3l-0.2-0.1c-0.7-0.2-1.4-0.3-2.1-0.3
					c-1.4,0-2.6,0.5-3.4,1.4c-0.9,0.9-1.4,2.2-1.4,3.8c0,1.4,0.4,2.6,1.2,3.5c0.9,0.9,1.9,1.3,3.2,1.3c0.8,0,1.6-0.2,2.4-0.5
					l0.2-0.1v-1.3l-0.4,0.2c-0.6,0.3-1.3,0.4-2.1,0.4c-1,0-1.8-0.3-2.4-1s-0.9-1.6-0.9-2.7c0-1.2,0.3-2.2,1-2.9
					C183,50.5,183.8,50.1,184.9,50.1z"/>
			</g>
		</g>
		<path fill="#FFFFFF" d="M26.8,17.5c-14.7,0-26.6,11.9-26.6,26.6s11.9,26.6,26.6,26.6c14.7,0,26.6-11.9,26.6-26.6
			S41.5,17.5,26.8,17.5z M40.5,58.4c-0.2,0.1-0.6,0.2-0.8,0.2c-0.6,0-1.2-0.3-1.4-0.8l-8.7-16.8l-5,9.8h2.8L27,50.1
			c-0.1-0.2-0.1-0.5,0.1-0.7c0.2-0.3,0.6-0.4,0.9-0.3l4.4,1.8c0.3,0.1,0.5,0.4,0.5,0.8c0,0.3-0.2,0.7-0.5,0.8L28,54.3
			c-0.3,0.1-0.7,0-0.9-0.3c-0.2-0.2-0.2-0.5-0.1-0.7l0.3-0.6h-3.8l-2.6,5.1c-0.3,0.5-0.8,0.8-1.4,0.8c-0.2,0-0.7-0.2-0.8-0.2
			l-0.3-0.1l0.6-1.2l2.3-4.4h-9.2c-0.4,0-0.7-0.2-0.9-0.5c-0.2-0.3-0.2-0.7,0-1l10.8-21l0.4,0.2c0.7,0.3,1,1,0.9,1.7
			c0,0.1-0.1,0.3-0.1,0.4l-9.4,18.2h8.6l6.4-12.5c0.2-0.3,0.6-0.5,0.9-0.5s0.7,0.2,0.9,0.5l10.3,20.1L40.5,58.4z M42.5,51.4
			c-0.2,0.1-0.6,0.2-0.8,0.2c-0.6,0-1.2-0.3-1.4-0.8L29.5,29.9l-8.8,17.2c-0.3,0.5-0.8,0.8-1.4,0.8c-0.2,0-0.7-0.2-0.9-0.2l-0.3-0.1
			l0.6-1.2l9.9-19.3c0.2-0.3,0.5-0.5,0.9-0.5s0.7,0.2,0.9,0.5l12.4,24.1L42.5,51.4z"/>
	</g>
</g>
</svg>
