<?xml version="1.0" encoding="utf-8"?>
<!-- Generator: Adobe Illustrator 18.1.1, SVG Export Plug-In . SVG Version: 6.00 Build 0)  -->
<svg version="1.1" id="Layer_1" xmlns="http://www.w3.org/2000/svg" xmlns:xlink="http://www.w3.org/1999/xlink" x="0px" y="0px"
	 width="292px" height="50px" viewBox="-28 0 292 50" enable-background="new -28 0 292 50" xml:space="preserve">
<g>
	<g>
		<rect x="131.6" y="7" fill="#58595B" width="2.2" height="35.9"/>
		<g>
			<path fill="#F9B149" d="M159.7,21.4h-5V4.8H145V1.2h24.5v3.6h-9.8V21.4z"/>
			<path fill="#F9B149" d="M175.8,1.2h21.7v3.6h-16.7v4.4h9.7v3.5h-9.7v5h17v3.8h-22V1.2z"/>
			<path fill="#F9B149" d="M210.3,4.9v12.6h13.3v-4.3l5,1v2.4c0,3.8-1.3,4.8-5.3,4.8h-12.6c-4.1,0-5.3-1.1-5.3-4.8V5.9
				c0-3.8,1.2-4.8,5.3-4.8h12.6c4,0,5.3,1,5.3,4.8v2l-5,0.7V4.9H210.3z"/>
			<path fill="#F9B149" d="M234.7,1.2h5v7.7h15.4V1.2h4.9v20.2h-4.9v-8.5h-15.4v8.5h-5V1.2z"/>
			<path fill="#F9B149" d="M159.6,48.8h-4.9V32.3H145v-3.6h24.5v3.6h-9.8L159.6,48.8L159.6,48.8z"/>
			<path fill="#F9B149" d="M178.6,28.6h15.6c4,0,5.3,0.9,5.3,4.8v10.7c0,3.8-1.3,4.8-5.3,4.8h-15.6c-4,0-5.3-1-5.3-4.8V33.4
				C173.4,29.5,174.7,28.6,178.6,28.6z M194.6,45V32.4h-16.3V45H194.6z"/>
			<path fill="#F9B149" d="M210.1,45.1h14V28.6h5V44c0,3.8-1.3,4.8-5.3,4.8h-13.4c-4,0-5.3-1-5.3-4.8V28.6h4.9v16.5H210.1z"/>
			<path fill="#F9B149" d="M236.2,28.6h18.2c3.2,0,4.7,1.1,4.7,3.9v4.8c0,2.8-1.5,3.9-4.7,3.9h-2.8l9.6,7.6h-7.1l-8.4-7.6h-4.6v7.6
				h-4.9V28.6z M241,32.1v5.6h11.2c1.5,0,2.2-0.3,2.2-1.6v-2.3c0-1.3-0.8-1.6-2.2-1.6H241V32.1z"/>
		</g>
		<g>
			<path fill="#00703C" d="M38.5,19.1c-0.2-0.9-0.6-1.8-1-2.6s-1-1.5-1.6-2c-0.7-0.6-1.4-1-2.3-1.3c-0.9-0.3-1.9-0.5-3.1-0.5
				c-1.7,0-3.2,0.3-4.5,1s-2.3,1.6-3.1,2.8c-0.8,1.2-1.4,2.5-1.8,4s-0.6,3-0.6,4.5s0.2,3.1,0.6,4.5c0.4,1.5,1,2.8,1.8,4
				s1.8,2.1,3.1,2.8c1.3,0.7,2.8,1,4.5,1c1.3,0,2.4-0.2,3.4-0.7c1-0.4,1.8-1,2.5-1.8s1.2-1.7,1.6-2.7c0.4-1,0.7-2.1,0.8-3.3h5.5
				c-0.1,1.9-0.5,3.7-1.3,5.3c-0.7,1.6-1.7,3-2.9,4.2s-2.6,2.1-4.3,2.7s-3.4,1-5.4,1c-2.4,0-4.6-0.4-6.5-1.3
				C22,39.8,20.3,38.6,19,37c-1.3-1.5-2.4-3.3-3.1-5.4s-1.1-4.3-1.1-6.6s0.4-4.5,1.1-6.5c0.7-2.1,1.7-3.9,3.1-5.4
				c1.3-1.5,3-2.8,4.9-3.7c1.9-1,4-1.4,6.5-1.4c1.8,0,3.5,0.3,5.1,0.8s3,1.2,4.3,2.2c1.2,1,2.2,2.1,3,3.5s1.2,2.9,1.4,4.7h-5.7V19.1
				z"/>
			<path fill="#00703C" d="M49.4,8.8h15.8c2.9,0,5.2,0.7,7,2s2.6,3.4,2.6,6c0,1.6-0.4,3-1.2,4.2c-0.8,1.2-1.9,2.1-3.4,2.7v0.1
				c2,0.4,3.5,1.4,4.5,2.8c1,1.5,1.5,3.3,1.5,5.5c0,1.3-0.2,2.5-0.7,3.6s-1.2,2.1-2.1,2.9c-1,0.8-2.2,1.4-3.7,1.9s-3.3,0.7-5.4,0.7
				H49.4V8.8z M55.1,22.4h9.3c1.4,0,2.5-0.4,3.4-1.2c0.9-0.8,1.4-1.9,1.4-3.3c0-1.6-0.4-2.8-1.2-3.5c-0.8-0.7-2-1-3.5-1h-9.3v9H55.1
				z M55.1,36.6h10.1c1.7,0,3.1-0.4,4-1.3c1-0.9,1.4-2.2,1.4-3.8c0-1.6-0.5-2.8-1.4-3.7c-1-0.9-2.3-1.3-4-1.3H55.1V36.6z"/>
			<path fill="#00703C" d="M80.5,8.8h5.7v32.5h-5.7V8.8z"/>
			<path fill="#00703C" d="M115,19.1c-0.2-0.9-0.6-1.8-1-2.6s-1-1.5-1.6-2c-0.7-0.6-1.4-1-2.3-1.3s-1.9-0.5-3.1-0.5
				c-1.7,0-3.2,0.3-4.5,1s-2.3,1.6-3.1,2.8c-0.8,1.2-1.4,2.5-1.8,4S97,23.5,97,25s0.2,3.1,0.6,4.5c0.4,1.5,1,2.8,1.8,4
				s1.8,2.1,3.1,2.8c1.3,0.7,2.8,1,4.5,1c1.3,0,2.4-0.2,3.4-0.7c1-0.4,1.8-1,2.5-1.8s1.2-1.7,1.6-2.7s0.7-2.1,0.8-3.3h5.5
				c-0.1,1.9-0.5,3.7-1.3,5.3c-0.7,1.6-1.7,3-2.9,4.2c-1.2,1.2-2.6,2.1-4.3,2.7c-1.6,0.6-3.4,1-5.4,1c-2.4,0-4.6-0.4-6.5-1.3
				c-1.9-0.9-3.6-2.1-4.9-3.7c-1.3-1.5-2.4-3.3-3.1-5.4s-1.1-4.3-1.1-6.6s0.4-4.5,1.1-6.5c0.7-2.1,1.7-3.9,3.1-5.4
				c1.3-1.5,3-2.8,4.9-3.7s4.1-1.4,6.5-1.4c1.8,0,3.5,0.3,5.1,0.8s3,1.2,4.3,2.2c1.2,1,2.2,2.1,3,3.5s1.2,2.9,1.4,4.7H115V19.1z"/>
		</g>
	</g>
	<path fill="#00703C" d="M-7.8,7.6c-9.6,0-17.5,7.8-17.5,17.5s7.8,17.5,17.5,17.5S9.7,34.6,9.7,25S1.8,7.6-7.8,7.6z M2.5,26
		l-1.3-0.1C1.1,26.4,1,27,0.8,27.5l1.3,0.4c-0.1,0.3-0.2,0.6-0.3,0.9l-1.3-0.5c-0.2,0.5-0.5,1-0.8,1.5l1.1,0.7
		c-0.2,0.3-0.4,0.5-0.6,0.8l-1.1-0.8C-1.2,31-1.6,31.4-2,31.8l0.9,1c-0.3,0.2-0.5,0.4-0.8,0.6l-0.8-1.1c-0.5,0.3-1,0.6-1.5,0.8
		l0.5,1.2c-0.3,0.1-0.6,0.3-0.9,0.4L-5,33.5c-0.5,0.2-1.1,0.3-1.7,0.4l0.2,1.3c-0.3,0-0.7,0.1-1,0.1l0-1.4c-0.1,0-0.2,0-0.3,0
		c-0.5,0-1,0-1.4-0.1l-0.2,1.3c-0.3-0.1-0.7-0.1-1-0.2l0.3-1.3c-0.6-0.1-1.1-0.3-1.6-0.6l-0.6,1.2c-0.3-0.1-0.6-0.3-0.9-0.5l0.7-1.2
		c-0.5-0.3-1-0.6-1.4-1l-0.9,1c-0.2-0.2-0.5-0.5-0.7-0.7l1-0.9c-0.4-0.4-0.7-0.9-1-1.4l-1.2,0.7c-0.2-0.3-0.3-0.6-0.5-0.9l1.2-0.6
		c-0.2-0.5-0.4-1.1-0.6-1.6l-1.3,0.3c-0.1-0.3-0.2-0.6-0.2-1l1.3-0.2c-0.1-0.5-0.1-0.9-0.1-1.4c0-0.1,0-0.2,0-0.3l-1.4,0
		c0-0.3,0-0.7,0.1-1l1.3,0.2c0.1-0.6,0.2-1.1,0.4-1.7l-1.3-0.4c0.1-0.3,0.2-0.6,0.4-0.9l1.2,0.5c0.2-0.5,0.5-1,0.8-1.5l-1.1-0.8
		c0.2-0.3,0.4-0.5,0.6-0.8l1,0.9c0.4-0.4,0.8-0.8,1.2-1.2l-0.8-1.1c0.3-0.2,0.5-0.4,0.8-0.6l0.7,1.1c0.5-0.3,1-0.6,1.5-0.8l-0.5-1.3
		c0.3-0.1,0.6-0.2,0.9-0.3l0.4,1.3c0.5-0.2,1.1-0.3,1.7-0.3l-0.1-1.3c0.3,0,0.7-0.1,1,0l0,1.3c0.6,0,1.2,0.1,1.7,0.2l0.3-1.3
		c0.3,0.1,0.6,0.1,1,0.2l-0.4,1.3c0.6,0.2,1.1,0.4,1.6,0.6l0.6-1.2c0.3,0.2,0.6,0.3,0.9,0.5l-0.7,1.1c0.5,0.3,0.9,0.7,1.3,1.1l0.9-1
		c0.2,0.2,0.5,0.5,0.7,0.7l-1,0.9c0.4,0.4,0.7,0.9,1,1.4L1.2,20c0.2,0.3,0.3,0.6,0.4,0.9l-1.2,0.5c0.2,0.5,0.4,1.1,0.5,1.6l1.3-0.3
		c0.1,0.3,0.1,0.6,0.2,1l-1.3,0.2c0,0.4,0.1,0.7,0.1,1.1h1.3C2.5,25.3,2.5,25.7,2.5,26z"/>
</g>
</svg>
