<?xml version="1.0" encoding="utf-8"?>
<!-- Generator: Adobe Illustrator 18.1.1, SVG Export Plug-In . SVG Version: 6.00 Build 0)  -->
<svg version="1.1" id="Layer_1" xmlns="http://www.w3.org/2000/svg" xmlns:xlink="http://www.w3.org/1999/xlink" x="0px" y="0px"
	 viewBox="0 0 175 50" enable-background="new 0 0 175 50" xml:space="preserve">
<g>
	<g>
		<path fill="#585A5A" d="M71,21.2H66V4.6h-9.7V1h24.5v3.6H71V21.2z"/>
		<path fill="#585A5A" d="M87.1,1h21.7v3.6H92.1v4.4h9.7v3.5h-9.7v5h17v3.8H87.1V1z"/>
		<path fill="#585A5A" d="M121.6,4.7v12.6h13.3V13l5,1v2.4c0,3.8-1.3,4.8-5.3,4.8h-12.6c-4.1,0-5.3-1.1-5.3-4.8V5.7
			c0-3.8,1.2-4.8,5.3-4.8h12.6c4,0,5.3,1,5.3,4.8v2l-5,0.7V4.7H121.6z"/>
		<path fill="#585A5A" d="M146,1h5v7.7h15.4V1h4.9v20.2h-4.9v-8.5H151v8.5h-5V1z"/>
		<path fill="#585A5A" d="M70.9,48.6H66V32.1h-9.7v-3.6h24.5v3.6h-9.8V48.6z"/>
		<path fill="#585A5A" d="M89.9,28.4h15.6c4,0,5.3,0.9,5.3,4.8v10.7c0,3.8-1.3,4.8-5.3,4.8H89.9c-4,0-5.3-1-5.3-4.8V33.2
			C84.7,29.3,86,28.4,89.9,28.4z M105.9,44.8V32.2H89.6v12.6H105.9z"/>
		<path fill="#585A5A" d="M121.4,44.9h14V28.4h5v15.4c0,3.8-1.3,4.8-5.3,4.8h-13.4c-4,0-5.3-1-5.3-4.8V28.4h4.9V44.9z"/>
		<path fill="#585A5A" d="M147.5,28.4h18.2c3.2,0,4.7,1.1,4.7,3.9v4.8c0,2.8-1.5,3.9-4.7,3.9h-2.8l9.6,7.6h-7.1L157,41h-4.6v7.6
			h-4.9V28.4z M152.3,31.9v5.6h11.2c1.5,0,2.2-0.3,2.2-1.6v-2.3c0-1.3-0.8-1.6-2.2-1.6H152.3z"/>
	</g>
	<path fill="#FBB038" d="M24.9,15.8l2.5-1.5l9,15.6l9-5.2V17c0-3.1-1.6-5.9-4.3-7.5L28.3,2.1c-2.7-1.5-5.9-1.5-8.6,0L6.8,9.6
		c-2.7,1.5-4.3,4.4-4.3,7.5v2.5L23.4,7.4l0.8,1.4c0.6,1.1,0.3,2.5-0.9,3.2l-5.2,3c-1.1,0.6-1.5,2-0.8,3.2l6.7,11.7
		c0.6,1.1,0.3,2.5-0.8,3.1l-2.7,1.5l-9-15.6l-9,5.2v7.8c0,3.1,1.6,5.9,4.3,7.5l12.9,7.4c2.7,1.5,5.9,1.5,8.6,0l12.9-7.4
		c2.7-1.5,4.3-4.4,4.3-7.5v-2.5L24.6,41.5l-0.7-1.2c-0.7-1.2-0.3-2.8,0.9-3.5l5-2.9c1.1-0.6,1.5-2.1,0.8-3.2L24,19.2
		C23.3,18,23.7,16.5,24.9,15.8z"/>
</g>
</svg>
