<?xml version="1.0" encoding="utf-8"?>
<!-- Generator: Adobe Illustrator 18.1.1, SVG Export Plug-In . SVG Version: 6.00 Build 0)  -->
<svg version="1.1" id="Layer_1" xmlns="http://www.w3.org/2000/svg" xmlns:xlink="http://www.w3.org/1999/xlink" x="0px" y="0px"
	 viewBox="0 0 152 74" enable-background="new 0 0 152 74" xml:space="preserve">
<g>
	<path fill="#FFFFFF" d="M23.5,15.9l2.1-1.2l7.6,13.1l7.6-4.4v-6.5c0-2.6-1.4-5-3.6-6.2L26.3,4.4c-2.2-1.3-5-1.3-7.2,0L8.3,10.6
		c-2.2,1.3-3.6,3.7-3.6,6.2V19L22.2,8.9l0.7,1.2c0.5,0.9,0.2,2.1-0.7,2.7l-4.4,2.5c-0.9,0.5-1.2,1.7-0.7,2.6l5.6,9.8
		c0.5,0.9,0.2,2.1-0.7,2.6l-2.2,1.3l-7.6-13.1l-7.6,4.4v6.5c0,2.6,1.4,5,3.6,6.2l10.8,6.2c2.2,1.3,5,1.3,7.2,0l10.8-6.2
		c2.2-1.3,3.6-3.7,3.6-6.2v-2.1L23.2,37.3l-0.6-1c-0.6-1-0.2-2.3,0.8-2.9l4.2-2.4c0.9-0.5,1.2-1.7,0.7-2.7l-5.6-9.6
		C22.1,17.7,22.5,16.5,23.5,15.9z"/>
	<g>
		<path fill="#FFFFFF" d="M62.2,20.4h-4.1V6.5h-8.2v-3h20.5v3h-8.2V20.4z"/>
		<path fill="#FFFFFF" d="M75.7,3.4h18.2v3h-14v3.7H88V13h-8.2v4.2h14.2v3.2H75.7V3.4z"/>
		<path fill="#FFFFFF" d="M104.6,6.6v10.6h11.1v-3.6l4.2,0.8v2c0,3.2-1.1,4-4.4,4h-10.6c-3.4,0-4.4-0.9-4.4-4V7.4c0-3.2,1-4,4.4-4
			h10.6c3.4,0,4.4,0.8,4.4,4v1.6l-4.2,0.6V6.6H104.6z"/>
		<path fill="#FFFFFF" d="M125,3.4h4.2v6.4H142V3.4h4.1v16.9H142v-7.1h-12.9v7.1H125V3.4z"/>
		<path fill="#FFFFFF" d="M62.2,43.4H58V29.5h-8.2v-3h20.5v3h-8.2V43.4z"/>
		<path fill="#FFFFFF" d="M78.1,26.4h13.1c3.3,0,4.4,0.8,4.4,4v8.9c0,3.2-1.1,4-4.4,4H78.1c-3.4,0-4.4-0.8-4.4-4v-8.9
			C73.7,27.2,74.8,26.4,78.1,26.4z M91.4,40.1V29.6H77.8v10.6H91.4z"/>
		<path fill="#FFFFFF" d="M104.4,40.2h11.8V26.4h4.2v12.9c0,3.2-1.1,4-4.4,4h-11.2c-3.4,0-4.4-0.8-4.4-4V26.4h4.1V40.2z"/>
		<path fill="#FFFFFF" d="M126.2,26.4h15.2c2.7,0,4,0.9,4,3.3v4c0,2.3-1.2,3.2-4,3.2h-2.3l8,6.4h-5.9l-7.1-6.4h-3.9v6.4h-4.1V26.4z
			 M130.3,29.4V34h9.4c1.2,0,1.9-0.2,1.9-1.4v-2c0-1.1-0.6-1.4-1.9-1.4H130.3z"/>
	</g>
	<rect x="49.9" y="51.6" fill="#FFFFFF" width="97.4" height="1.3"/>
	<g>
		<path fill="#FFFFFF" d="M51.9,62.6h1.5l1.1,3.9c0.3,0.9,0.4,1.7,0.7,2.6h0c0.3-0.9,0.4-1.7,0.7-2.6l1.1-3.9h1.4L56,70.4h-1.7
			L51.9,62.6z"/>
		<path fill="#FFFFFF" d="M59.7,62.7c0-0.5,0.4-0.8,0.9-0.8c0.5,0,0.9,0.3,0.9,0.8c0,0.5-0.4,0.8-0.9,0.8
			C60,63.5,59.7,63.2,59.7,62.7z M59.8,64.5h1.4v5.9h-1.4V64.5z"/>
		<path fill="#FFFFFF" d="M63.6,68.9c0.5,0.4,1,0.7,1.6,0.7c0.6,0,0.9-0.3,0.9-0.7c0-0.5-0.6-0.7-1.3-0.9c-0.8-0.3-1.7-0.7-1.7-1.7
			c0-1,0.8-1.8,2.1-1.8c0.8,0,1.5,0.3,2,0.7l-0.6,0.8c-0.4-0.3-0.8-0.5-1.3-0.5c-0.6,0-0.9,0.3-0.9,0.6c0,0.5,0.6,0.6,1.2,0.9
			c0.8,0.3,1.7,0.7,1.7,1.8c0,1-0.8,1.8-2.3,1.8c-0.8,0-1.7-0.3-2.2-0.8L63.6,68.9z"/>
		<path fill="#FFFFFF" d="M69.2,62.7c0-0.5,0.4-0.8,0.9-0.8c0.5,0,0.9,0.3,0.9,0.8c0,0.5-0.4,0.8-0.9,0.8
			C69.5,63.5,69.2,63.2,69.2,62.7z M69.3,64.5h1.4v5.9h-1.4V64.5z"/>
		<path fill="#FFFFFF" d="M73.3,65.6h-0.8v-1l0.9-0.1l0.2-1.6h1.2v1.6h1.5v1.1h-1.5v2.8c0,0.7,0.3,1,0.8,1c0.2,0,0.4-0.1,0.6-0.1
			l0.2,1c-0.3,0.1-0.7,0.2-1.2,0.2c-1.4,0-1.9-0.9-1.9-2.1V65.6z"/>
		<path fill="#FFFFFF" d="M82.5,67.5l-2.4-4.9h1.5l0.9,2c0.2,0.6,0.5,1.1,0.7,1.7h0c0.3-0.6,0.5-1.1,0.7-1.7l0.9-2h1.5l-2.4,4.9v2.9
			h-1.4V67.5z"/>
		<path fill="#FFFFFF" d="M89.6,64.4c1.5,0,2.8,1.1,2.8,3.1c0,2-1.3,3.1-2.8,3.1c-1.5,0-2.8-1.1-2.8-3.1
			C86.8,65.5,88.1,64.4,89.6,64.4z M89.6,69.4c0.9,0,1.4-0.8,1.4-2c0-1.2-0.5-2-1.4-2s-1.4,0.8-1.4,2C88.2,68.7,88.7,69.4,89.6,69.4
			z"/>
		<path fill="#FFFFFF" d="M93.8,64.5h1.4V68c0,1,0.3,1.3,0.9,1.3c0.5,0,0.9-0.2,1.3-0.8v-4h1.4v5.9h-1.1l-0.1-0.9h0
			c-0.5,0.6-1.1,1-1.9,1c-1.3,0-1.8-0.9-1.8-2.3V64.5z"/>
		<path fill="#FFFFFF" d="M101.2,64.5h1.1l0.1,1h0c0.4-0.8,1-1.2,1.7-1.2c0.3,0,0.5,0,0.7,0.1l-0.2,1.2c-0.2-0.1-0.4-0.1-0.6-0.1
			c-0.5,0-1,0.3-1.4,1.2v3.6h-1.4V64.5z"/>
		<path fill="#FFFFFF" d="M109.4,62.6h4.7v1.2h-3.3V66h2.8v1.2h-2.8v3.3h-1.4V62.6z"/>
		<path fill="#FFFFFF" d="M115.7,64.5h1.4V68c0,1,0.3,1.3,0.9,1.3c0.5,0,0.9-0.2,1.3-0.8v-4h1.4v5.9h-1.1l-0.1-0.9h0
			c-0.5,0.6-1.1,1-1.9,1c-1.3,0-1.8-0.9-1.8-2.3V64.5z"/>
		<path fill="#FFFFFF" d="M123.2,65.6h-0.8v-1l0.9-0.1l0.2-1.6h1.2v1.6h1.5v1.1h-1.5v2.8c0,0.7,0.3,1,0.8,1c0.2,0,0.4-0.1,0.6-0.1
			l0.2,1c-0.3,0.1-0.7,0.2-1.2,0.2c-1.4,0-1.9-0.9-1.9-2.1V65.6z"/>
		<path fill="#FFFFFF" d="M127.9,64.5h1.4V68c0,1,0.3,1.3,0.9,1.3c0.5,0,0.9-0.2,1.3-0.8v-4h1.4v5.9h-1.1l-0.1-0.9h0
			c-0.5,0.6-1.1,1-1.9,1c-1.3,0-1.8-0.9-1.8-2.3V64.5z"/>
		<path fill="#FFFFFF" d="M135.2,64.5h1.1l0.1,1h0c0.4-0.8,1-1.2,1.7-1.2c0.3,0,0.5,0,0.7,0.1l-0.2,1.2c-0.2-0.1-0.4-0.1-0.6-0.1
			c-0.5,0-1,0.3-1.4,1.2v3.6h-1.4V64.5z"/>
		<path fill="#FFFFFF" d="M142.6,64.4c1.6,0,2.4,1.2,2.4,2.8c0,0.3,0,0.5-0.1,0.6h-3.7c0.1,1.1,0.8,1.7,1.7,1.7
			c0.5,0,0.9-0.2,1.4-0.4l0.5,0.9c-0.6,0.4-1.3,0.6-2,0.6c-1.6,0-2.9-1.1-2.9-3.1C139.9,65.6,141.2,64.4,142.6,64.4z M143.8,67
			c0-0.9-0.4-1.5-1.2-1.5c-0.7,0-1.3,0.5-1.4,1.5H143.8z"/>
	</g>
</g>
</svg>
