<?xml version="1.0" encoding="utf-8"?>
<!-- Generator: Adobe Illustrator 18.1.1, SVG Export Plug-In . SVG Version: 6.00 Build 0)  -->
<svg version="1.1" id="Layer_1" xmlns="http://www.w3.org/2000/svg" xmlns:xlink="http://www.w3.org/1999/xlink" x="0px" y="0px"
	 width="70px" height="50px" viewBox="140 0 70 50" enable-background="new 140 0 70 50" xml:space="preserve">
<g>
	<g>
		<path fill="#FFFFFF" d="M150.4,13.8h-2.8V4.4h-5.5v-2H156v2h-5.5V13.8z"/>
		<path fill="#FFFFFF" d="M159.6,2.3h12.3v2h-9.5v2.5h5.5v2h-5.5v2.8h9.6v2.2h-12.4V2.3z"/>
		<path fill="#FFFFFF" d="M179.1,4.5v7.2h7.5V9.2l2.8,0.5v1.4c0,2.2-0.7,2.7-3,2.7h-7.2c-2.3,0-3-0.6-3-2.7V5c0-2.2,0.7-2.7,3-2.7
			h7.2c2.3,0,3,0.5,3,2.7v1.1l-2.8,0.4v-2H179.1z"/>
		<path fill="#FFFFFF" d="M192.9,2.3h2.8v4.3h8.6V2.3h2.8v11.4h-2.8V8.9h-8.7v4.8h-2.8V2.3z"/>
		<path fill="#FFFFFF" d="M150.4,29.3h-2.8v-9.4h-5.5v-2h13.9v2h-5.5L150.4,29.3L150.4,29.3z"/>
		<path fill="#FFFFFF" d="M161.2,17.8h8.9c2.2,0,3,0.5,3,2.7v6c0,2.2-0.7,2.7-3,2.7h-8.9c-2.3,0-3-0.5-3-2.7v-6
			C158.2,18.4,159,17.8,161.2,17.8z M170.2,27.1V20H161v7.2L170.2,27.1L170.2,27.1z"/>
		<path fill="#FFFFFF" d="M179,27.2h8v-9.3h2.8v8.7c0,2.2-0.7,2.7-3,2.7h-7.6c-2.3,0-3-0.5-3-2.7v-8.7h2.8L179,27.2L179,27.2z"/>
		<path fill="#FFFFFF" d="M193.7,17.8H204c1.8,0,2.7,0.6,2.7,2.2v2.7c0,1.6-0.8,2.2-2.7,2.2h-1.6l5.4,4.3h-4l-4.8-4.3h-2.6v4.3h-2.8
			L193.7,17.8L193.7,17.8z M196.5,19.9V23h6.4c0.8,0,1.3-0.1,1.3-0.9v-1.4c0-0.7-0.4-0.9-1.3-0.9h-6.4V19.9z"/>
	</g>
	<rect x="142.1" y="34.9" fill="#FFFFFF" width="65.8" height="0.9"/>
	<g>
		<path fill="#FFFFFF" d="M143.5,42.3h1l0.7,2.6c0.2,0.6,0.3,1.1,0.5,1.8l0,0c0.2-0.6,0.3-1.1,0.5-1.8l0.7-2.6h0.9l-1.6,5.3h-1.1
			L143.5,42.3z"/>
		<path fill="#FFFFFF" d="M148.8,42.4c0-0.3,0.3-0.5,0.6-0.5s0.6,0.2,0.6,0.5s-0.3,0.5-0.6,0.5C149,42.9,148.8,42.7,148.8,42.4z
			 M148.8,43.6h0.9v4h-0.9V43.6z"/>
		<path fill="#FFFFFF" d="M151.4,46.6c0.3,0.3,0.7,0.5,1.1,0.5c0.4,0,0.6-0.2,0.6-0.5c0-0.3-0.4-0.5-0.9-0.6
			c-0.5-0.2-1.1-0.5-1.1-1.1c0-0.7,0.5-1.2,1.4-1.2c0.5,0,1,0.2,1.4,0.5l-0.4,0.5c-0.3-0.2-0.5-0.3-0.9-0.3c-0.4,0-0.6,0.2-0.6,0.4
			c0,0.3,0.4,0.4,0.8,0.6c0.5,0.2,1.1,0.5,1.1,1.2c0,0.7-0.5,1.2-1.6,1.2c-0.5,0-1.1-0.2-1.5-0.5L151.4,46.6z"/>
		<path fill="#FFFFFF" d="M155.2,42.4c0-0.3,0.3-0.5,0.6-0.5c0.3,0,0.6,0.2,0.6,0.5s-0.3,0.5-0.6,0.5
			C155.4,42.9,155.2,42.7,155.2,42.4z M155.2,43.6h0.9v4h-0.9V43.6z"/>
		<path fill="#FFFFFF" d="M157.9,44.3h-0.5v-0.7l0.6-0.1l0.1-1.1h0.8v1.1h1v0.7h-1v1.9c0,0.5,0.2,0.7,0.5,0.7c0.1,0,0.3-0.1,0.4-0.1
			l0.1,0.7c-0.2,0.1-0.5,0.1-0.8,0.1c-0.9,0-1.3-0.6-1.3-1.4C157.9,46.2,157.9,44.3,157.9,44.3z"/>
		<path fill="#FFFFFF" d="M164.2,45.6l-1.6-3.3h1l0.6,1.4c0.1,0.4,0.3,0.7,0.5,1.1l0,0c0.2-0.4,0.3-0.7,0.5-1.1l0.6-1.4h1l-1.6,3.3
			v2h-0.9C164.2,47.6,164.2,45.6,164.2,45.6z"/>
		<path fill="#FFFFFF" d="M169,43.5c1,0,1.9,0.7,1.9,2.1c0,1.4-0.9,2.1-1.9,2.1c-1,0-1.9-0.7-1.9-2.1
			C167.1,44.3,167.9,43.5,169,43.5z M169,46.9c0.6,0,0.9-0.5,0.9-1.4c0-0.8-0.3-1.4-0.9-1.4s-0.9,0.5-0.9,1.4
			C168,46.4,168.3,46.9,169,46.9z"/>
		<path fill="#FFFFFF" d="M171.8,43.6h0.9v2.4c0,0.7,0.2,0.9,0.6,0.9c0.3,0,0.6-0.1,0.9-0.5v-2.7h0.9v4h-0.7l-0.1-0.6l0,0
			c-0.3,0.4-0.7,0.7-1.3,0.7c-0.9,0-1.2-0.6-1.2-1.6L171.8,43.6L171.8,43.6z"/>
		<path fill="#FFFFFF" d="M176.8,43.6h0.7l0.1,0.7l0,0c0.3-0.5,0.7-0.8,1.1-0.8c0.2,0,0.3,0,0.5,0.1l-0.1,0.8
			c-0.1-0.1-0.3-0.1-0.4-0.1c-0.3,0-0.7,0.2-0.9,0.8v2.4h-0.9C176.8,47.5,176.8,43.6,176.8,43.6z"/>
		<path fill="#FFFFFF" d="M182.3,42.3h3.2v0.8h-2.2v1.5h1.9v0.8h-1.9v2.2h-0.9C182.3,47.6,182.3,42.3,182.3,42.3z"/>
		<path fill="#FFFFFF" d="M186.6,43.6h0.9v2.4c0,0.7,0.2,0.9,0.6,0.9c0.3,0,0.6-0.1,0.9-0.5v-2.7h0.9v4h-0.7l-0.1-0.6l0,0
			c-0.3,0.4-0.7,0.7-1.3,0.7c-0.9,0-1.2-0.6-1.2-1.6L186.6,43.6L186.6,43.6z"/>
		<path fill="#FFFFFF" d="M191.7,44.3h-0.5v-0.7l0.6-0.1l0.1-1.1h0.8v1.1h1v0.7h-1v1.9c0,0.5,0.2,0.7,0.5,0.7c0.1,0,0.3-0.1,0.4-0.1
			l0.1,0.7c-0.2,0.1-0.5,0.1-0.8,0.1c-0.9,0-1.3-0.6-1.3-1.4C191.7,46.2,191.7,44.3,191.7,44.3z"/>
		<path fill="#FFFFFF" d="M194.8,43.6h0.9v2.4c0,0.7,0.2,0.9,0.6,0.9c0.3,0,0.6-0.1,0.9-0.5v-2.7h0.9v4h-0.7l-0.1-0.6l0,0
			c-0.3,0.4-0.7,0.7-1.3,0.7c-0.9,0-1.2-0.6-1.2-1.6L194.8,43.6L194.8,43.6z"/>
		<path fill="#FFFFFF" d="M199.8,43.6h0.7l0.1,0.7l0,0c0.3-0.5,0.7-0.8,1.1-0.8c0.2,0,0.3,0,0.5,0.1l-0.1,0.8
			c-0.1-0.1-0.3-0.1-0.4-0.1c-0.3,0-0.7,0.2-0.9,0.8v2.4h-0.9L199.8,43.6L199.8,43.6z"/>
		<path fill="#FFFFFF" d="M204.8,43.5c1.1,0,1.6,0.8,1.6,1.9c0,0.2,0,0.3-0.1,0.4h-2.5c0.1,0.7,0.5,1.1,1.1,1.1
			c0.3,0,0.6-0.1,0.9-0.3l0.3,0.6c-0.4,0.3-0.9,0.4-1.4,0.4c-1.1,0-2-0.7-2-2.1C202.9,44.3,203.8,43.5,204.8,43.5z M205.6,45.3
			c0-0.6-0.3-1-0.8-1c-0.5,0-0.9,0.3-0.9,1H205.6z"/>
	</g>
</g>
</svg>
